<?xml version="1.0" standalone="no"?>
<svg xmlns="http://www.w3.org/2000/svg" viewBox="0 0 70.456 36" width="70.456" height="36">
    <g fill="#ff8888" color="#ff8888" transform="translate(56.456, 6) scale(0.5)">
        <svg width="28.0" height="48.0" x="0.0" y="0.0" viewBox="0 0 28 48">
            <path fill="#FFFFFF" fill-rule="nonzero" d="M13.93.61L.36 30.2l13.57 17.19L27.51 30.2 13.93.61zm0 3.92L25.6 30.02H2.26L13.93 4.53z"></path>
        </svg>
    </g>
    <path 
        fill="#FFFFFF" 
        fill-rule="nonzero" 
        d="M5.23 19.44L3.17 19.44L0 0L2.26 0L4.34 13.97L6.96 0.07L8.88 0.07L11.52 14.04L13.56 0L15.77 0L12.65 19.44L10.68 19.44L7.97 5.04L5.23 19.44ZM21.50 19.63L21.50 19.63Q19.97 19.63 19.08 19.01Q18.19 18.38 17.82 17.23Q17.45 16.08 17.45 14.52L17.45 14.52L17.45 10.49Q17.45 8.93 17.82 7.78Q18.19 6.62 19.08 6.00Q19.97 5.38 21.50 5.38L21.50 5.38Q23.04 5.38 23.92 6.00Q24.79 6.62 25.16 7.78Q25.54 8.93 25.54 10.49L25.54 10.49L25.54 14.52Q25.54 16.08 25.16 17.23Q24.79 18.38 23.92 19.01Q23.04 19.63 21.50 19.63ZM21.50 17.74L21.50 17.74Q22.25 17.74 22.55 17.30Q22.85 16.87 22.91 16.16Q22.97 15.46 22.97 14.69L22.97 14.69L22.97 10.34Q22.97 9.55 22.91 8.86Q22.85 8.16 22.55 7.72Q22.25 7.27 21.50 7.27L21.50 7.27Q20.76 7.27 20.45 7.72Q20.14 8.16 20.08 8.86Q20.02 9.55 20.02 10.34L20.02 10.34L20.02 14.69Q20.02 15.46 20.08 16.16Q20.14 16.87 20.45 17.30Q20.76 17.74 21.50 17.74ZM30.41 19.44L28.10 19.44L28.10 0L29.95 0L35.47 12.91L35.47 0L37.73 0L37.73 19.44L36 19.44L30.41 6.17L30.41 19.44ZM48.46 19.44L40.78 19.44L40.78 0L43.49 0L43.49 17.50L48.46 17.50L48.46 19.44Z" transform="translate(0, 8.184)">
    </path>
</svg>